<svg version="1.1" id="Layer_1" xmlns="http://www.w3.org/2000/svg" xmlns:xlink="http://www.w3.org/1999/xlink" x="0px" y="0px"
     viewBox="0 0 2500 2500" style="enable-background:new 0 0 2500 2500;" xml:space="preserve">
<style type="text/css">
  .st0{fill:#FFE812;}
</style>
    <path class="st0" d="M2500,0v2500H0V0H2500z"/>
    <path d="M1250,351.6c-560.9,0-1015.6,358.5-1015.6,800.8c0,285.9,190.1,536.8,476.1,678.5c-15.6,53.7-100,345.2-103.3,368.1
  c0,0-2,17.2,9.1,23.8c11.1,6.6,24.2,1.5,24.2,1.5c32-4.5,370.5-242.3,429.1-283.6c58.5,8.3,118.8,12.6,180.4,12.6
  c560.9,0,1015.6-358.5,1015.6-800.8C2265.6,710.1,1810.9,351.6,1250,351.6L1250,351.6z"/>
    <path class="st0" d="M688.5,1431.9c-32.3,0-58.6-25.1-58.6-56v-348.1h-91.4c-31.7,0-57.5-25.7-57.5-57.4s25.8-57.4,57.5-57.4h300
  c31.7,0,57.5,25.7,57.5,57.4s-25.8,57.4-57.5,57.4h-91.4v348.1C747.1,1406.8,720.8,1431.9,688.5,1431.9z M1202.3,1431.1
  c-24.4,0-43.1-9.9-48.8-25.9l-29-76l-178.7,0l-29,76c-5.6,15.9-24.3,25.8-48.7,25.8c-12.9,0-25.6-2.7-37.2-8.1
  c-16.2-7.5-31.7-27.9-13.9-83.2l140.2-368.9c9.9-28.1,39.9-57,78-57.8c38.3,0.9,68.3,29.8,78.2,57.9l140.1,368.7
  c17.8,55.4,2.3,75.9-13.8,83.3C1227.8,1428.4,1215.1,1431.1,1202.3,1431.1C1202.3,1431.1,1202.3,1431.1,1202.3,1431.1L1202.3,1431.1
  z M1093.7,1225.5l-58.5-166.3l-58.5,166.3H1093.7L1093.7,1225.5z M1347.7,1423.3c-31,0-56.2-24.1-56.2-53.7V971.7
  c0-32.3,26.8-58.6,59.8-58.6s59.8,26.3,59.8,58.6v344.2h124.5c31,0,56.2,24.1,56.2,53.7s-25.2,53.7-56.2,53.7H1347.7z
   M1673.2,1431.1c-32.3,0-58.6-26.3-58.6-58.6V971.7c0-32.3,26.3-58.6,58.6-58.6s58.6,26.3,58.6,58.6v125.9l163.5-163.5
  c8.4-8.4,20-13,32.5-13c14.6,0,29.3,6.3,40.3,17.3c10.3,10.3,16.4,23.4,17.2,37.1c0.8,13.8-3.8,26.5-12.9,35.7l-133.5,133.5
  l144.2,191.1c9.4,12.4,13.5,28,11.2,43.4c-2.1,15.4-10.3,29.3-22.7,38.6c-10.1,7.7-22.5,11.9-35.2,11.8
  c-18.4,0.1-35.8-8.6-46.8-23.3l-137.4-182.1l-20.3,20.3v127.8C1731.8,1404.9,1705.5,1431.1,1673.2,1431.1L1673.2,1431.1z"/>
</svg>